<?xml version="1.0" encoding="UTF-8"?>
<svg width="796px" height="280px" viewBox="0 0 796 280" version="1.1" xmlns="http://www.w3.org/2000/svg" xmlns:xlink="http://www.w3.org/1999/xlink">
    <title>Artboard</title>
    <g id="Artboard" stroke="none" stroke-width="1" fill="none" fill-rule="evenodd">
        <g id="Group_3255" transform="translate(663.332297, 4.313682)" fill="#FDF2E4" fill-rule="nonzero">
            <polygon id="Rectangle_1876" transform="translate(16.928302, 46.058517) rotate(-89.606000) translate(-16.928302, -46.058517) " points="-29.0152881 30.4457787 62.8805694 30.4210997 62.871836 61.6714352 -29.0240216 61.6961142"></polygon>
            <polygon id="Rectangle_1877" transform="translate(78.889160, 46.501946) rotate(-89.606000) translate(-78.889160, -46.501946) " points="32.9459619 30.8892676 124.841092 30.8645888 124.832359 62.1149251 32.9372285 62.1396039"></polygon>
        </g>
        <g id="Group_3256" transform="translate(521.332297, 136.275373)" fill="#FDF2E4" fill-rule="nonzero">
            <polygon id="Rectangle_1876-2" transform="translate(16.928302, 46.058517) rotate(-89.606000) translate(-16.928302, -46.058517) " points="-29.0152881 30.4457787 62.8805694 30.4210997 62.871836 61.6714352 -29.0240216 61.6961142"></polygon>
            <polygon id="Rectangle_1877-2" transform="translate(78.889160, 46.501946) rotate(-89.606000) translate(-78.889160, -46.501946) " points="32.9459619 30.8892676 124.841092 30.8645888 124.832359 62.1149251 32.9372285 62.1396039"></polygon>
        </g>
        <g id="Group_3260" transform="translate(666.328682, 135.234610)" fill="#FDF2E4" fill-rule="nonzero">
            <polygon id="Rectangle_1876-6" transform="translate(44.398477, 16.327473) rotate(-89.812000) translate(-44.398477, -16.327473) " points="28.2260884 -27.8107458 60.5811968 -27.8144015 60.5708664 60.4662123 28.215758 60.469868"></polygon>
            <polygon id="Rectangle_1877-6" transform="translate(44.194965, 80.480060) rotate(-89.812000) translate(-44.194965, -80.480060) " points="28.0225677 36.3416126 60.3776919 36.3379568 60.3673616 124.618508 28.0122373 124.622163"></polygon>
        </g>
        <g id="Group_3261" transform="translate(525.332297, 4.313682)" fill="#FDF2E4" fill-rule="nonzero">
            <polygon id="Rectangle_1876-7" transform="translate(44.394863, 16.327661) rotate(-89.812000) translate(-44.394863, -16.327661) " points="28.2224741 -27.8105576 60.5775824 -27.8142133 60.5672521 60.4664005 28.2121437 60.4700562"></polygon>
            <polygon id="Rectangle_1877-7" transform="translate(44.191350, 80.480248) rotate(-89.812000) translate(-44.191350, -80.480248) " points="28.0189533 36.3418008 60.3740776 36.338145 60.3637472 124.618696 28.008623 124.622352"></polygon>
        </g>
        <g id="Group_3265" transform="translate(395.332297, 3.272731)" fill="#FDF2E4" fill-rule="nonzero">
            <polygon id="Rectangle_1876-11" transform="translate(16.928302, 46.058517) rotate(-89.606000) translate(-16.928302, -46.058517) " points="-29.0152881 30.4457787 62.8805694 30.4210997 62.871836 61.6714352 -29.0240216 61.6961142"></polygon>
            <polygon id="Rectangle_1877-11" transform="translate(78.889160, 46.501946) rotate(-89.606000) translate(-78.889160, -46.501946) " points="32.9459619 30.8892676 124.841092 30.8645888 124.832359 62.1149251 32.9372285 62.1396039"></polygon>
        </g>
        <g id="Group_3266" transform="translate(266.332297, 134.193471)" fill="#FDF2E4" fill-rule="nonzero">
            <polygon id="Rectangle_1876-12" transform="translate(16.928302, 46.058517) rotate(-89.606000) translate(-16.928302, -46.058517) " points="-29.0152881 30.4457787 62.8805694 30.4210997 62.871836 61.6714352 -29.0240216 61.6961142"></polygon>
            <polygon id="Rectangle_1877-12" transform="translate(78.889160, 46.501946) rotate(-89.606000) translate(-78.889160, -46.501946) " points="32.9459619 30.8892676 124.841092 30.8645888 124.832359 62.1149251 32.9372285 62.1396039"></polygon>
        </g>
        <g id="Group_3270" transform="translate(398.332297, 132.111569)" fill="#FDF2E4" fill-rule="nonzero">
            <polygon id="Rectangle_1876-16" transform="translate(44.394863, 16.327661) rotate(-89.812000) translate(-44.394863, -16.327661) " points="28.2224741 -27.8105576 60.5775824 -27.8142133 60.5672521 60.4664005 28.2121437 60.4700562"></polygon>
            <polygon id="Rectangle_1877-16" transform="translate(44.191350, 80.480248) rotate(-89.812000) translate(-44.191350, -80.480248) " points="28.0189533 36.3418008 60.3740776 36.338145 60.3637472 124.618696 28.008623 124.622352"></polygon>
        </g>
        <g id="Group_3271" transform="translate(271.332297, 2.231780)" fill="#FDF2E4" fill-rule="nonzero">
            <polygon id="Rectangle_1876-17" transform="translate(44.394863, 16.327661) rotate(-89.812000) translate(-44.394863, -16.327661) " points="28.2224741 -27.8105576 60.5775824 -27.8142133 60.5672521 60.4664005 28.2121437 60.4700562"></polygon>
            <polygon id="Rectangle_1877-17" transform="translate(44.191350, 80.480248) rotate(-89.812000) translate(-44.191350, -80.480248) " points="28.0189533 36.3418008 60.3740776 36.338145 60.3637472 124.618696 28.008623 124.622352"></polygon>
        </g>
        <g id="Group_3275" transform="translate(136.332297, 1.190829)" fill="#FDF2E4" fill-rule="nonzero">
            <polygon id="Rectangle_1876-21" transform="translate(16.928302, 46.058517) rotate(-89.606000) translate(-16.928302, -46.058517) " points="-29.0152881 30.4457787 62.8805694 30.4210997 62.871836 61.6714352 -29.0240216 61.6961142"></polygon>
            <polygon id="Rectangle_1877-21" transform="translate(78.889160, 46.501946) rotate(-89.606000) translate(-78.889160, -46.501946) " points="32.9459619 30.8892676 124.841092 30.8645888 124.832359 62.1149251 32.9372285 62.1396039"></polygon>
        </g>
        <g id="Group_3276" transform="translate(-5.667703, 132.111569)" fill="#FDF2E4" fill-rule="nonzero">
            <polygon id="Rectangle_1876-22" transform="translate(16.928302, 46.058517) rotate(-89.606000) translate(-16.928302, -46.058517) " points="-29.0152881 30.4457787 62.8805694 30.4210997 62.871836 61.6714352 -29.0240216 61.6961142"></polygon>
            <polygon id="Rectangle_1877-22" transform="translate(78.889160, 46.501946) rotate(-89.606000) translate(-78.889160, -46.501946) " points="32.9459619 30.8892676 124.841092 30.8645888 124.832359 62.1149251 32.9372285 62.1396039"></polygon>
        </g>
        <g id="Group_3280" transform="translate(139.332297, 131.070618)" fill="#FDF2E4" fill-rule="nonzero">
            <polygon id="Rectangle_1876-26" transform="translate(44.394863, 16.327661) rotate(-89.812000) translate(-44.394863, -16.327661) " points="28.2224741 -27.8105576 60.5775824 -27.8142133 60.5672521 60.4664005 28.2121437 60.4700562"></polygon>
            <polygon id="Rectangle_1877-26" transform="translate(44.191350, 80.480248) rotate(-89.812000) translate(-44.191350, -80.480248) " points="28.0189533 36.3418008 60.3740776 36.338145 60.3637472 124.618696 28.008623 124.622352"></polygon>
        </g>
        <g id="Group_3281" transform="translate(-0.667703, 0.149878)" fill="#FDF2E4" fill-rule="nonzero">
            <polygon id="Rectangle_1876-27" transform="translate(44.394863, 16.327661) rotate(-89.812000) translate(-44.394863, -16.327661) " points="28.2224741 -27.8105576 60.5775824 -27.8142133 60.5672521 60.4664005 28.2121437 60.4700562"></polygon>
            <polygon id="Rectangle_1877-27" transform="translate(44.191350, 80.480248) rotate(-89.812000) translate(-44.191350, -80.480248) " points="28.0189533 36.3418008 60.3740776 36.338145 60.3637472 124.618696 28.008623 124.622352"></polygon>
        </g>
    </g>
</svg>