<svg width="264" height="260" viewBox="0 0 264 260" xmlns="http://www.w3.org/2000/svg"><path d="m-49.573 499.137-14.88 6.844 11.839 9.25 3.041-16.094Zm-19.534-15.256-15.11 6.32 11.509 9.658 3.601-15.978Zm-19.543-15.234-15.322 5.79 11.165 10.052 4.157-15.842Zm-19.548-15.228-15.515 5.25 10.808 10.437 4.707-15.687Zm-19.555-15.227-15.688 4.707 10.436 10.807 5.252-15.514Zm-19.564-15.208-15.843 4.156 10.053 11.164 5.79-15.32Zm-19.571-15.198-15.98 3.601 9.658 11.508 6.322-15.109Zm-19.58-15.187-16.095 3.04 9.25 11.838 6.845-14.878Zm-19.59-15.177-16.19 2.477 8.83 12.153 7.36-14.63Zm-19.597-15.168-16.269 1.91 8.403 12.455 7.866-14.365Zm-19.608-15.158-16.325 1.342 7.962 12.74 8.363-14.082Zm-19.617-15.15-16.362.772 7.513 13.01 8.85-13.781Zm-19.626-15.09-16.38.2 7.055 13.263 9.325-13.463Zm-19.637-15.182-16.378-.372 6.588 13.501 9.79-13.129Zm-19.648-15.124-16.354-.943 6.112 13.723 10.242-12.78Zm289.825 193.026-15.11 6.32 11.509 9.658 3.6-15.978Zm-19.542-15.239-15.322 5.79 11.165 10.053 4.157-15.843Zm-19.55-15.218-15.515 5.25 10.808 10.437 4.707-15.687Zm-19.557-15.212-15.689 4.706 10.437 10.807 5.252-15.513Zm-19.563-15.211-15.843 4.156 10.053 11.164 5.79-15.32Zm-19.572-15.193-15.98 3.6 9.658 11.509 6.322-15.109Zm-19.58-15.182-16.096 3.04 9.251 11.838 6.845-14.878Zm-19.59-15.173-16.191 2.478 8.831 12.153 7.36-14.63Zm-19.598-15.162-16.268 1.91 8.402 12.454 7.866-14.364Zm-19.607-15.154-16.325 1.342 7.962 12.74 8.363-14.082Zm-19.616-15.144-16.363.772 7.513 13.009 8.85-13.78Zm-19.627-15.135-16.38.2 7.055 13.263 9.325-13.463Zm-19.636-15.078-16.378-.372 6.588 13.501 9.79-13.129Zm-19.647-15.169-16.355-.943 6.113 13.723 10.242-12.78Zm-19.654-15.116-16.312-1.513 5.63 13.927 10.682-12.414Zm289.938 192.842-15.322 5.79 11.165 10.052 4.157-15.842Zm-19.55-15.223-15.514 5.25 10.807 10.437 4.707-15.687Zm-19.558-15.203-15.689 4.707 10.437 10.807 5.252-15.514Zm-19.566-15.195-15.843 4.156 10.053 11.164 5.79-15.32Zm-19.57-15.196-15.98 3.601 9.658 11.508 6.321-15.109Zm-19.581-15.177-16.096 3.04 9.25 11.838 6.846-14.878Zm-19.59-15.167-16.192 2.477 8.832 12.153 7.36-14.63Zm-19.597-15.158-16.269 1.91 8.402 12.455 7.867-14.365Zm-19.608-15.149-16.326 1.342 7.963 12.74 8.363-14.082Zm-19.617-15.14-16.362.773 7.514 13.009 8.848-13.781Zm-19.626-15.13-16.38.2 7.055 13.263 9.325-13.463Zm-19.636-15.122-16.377-.372 6.588 13.501 9.79-13.129Zm-19.646-15.065-16.354-.943 6.112 13.722 10.242-12.779Zm-19.653-15.161-16.312-1.514 5.63 13.928 10.682-12.414Zm-19.657-15.113-16.25-2.082 5.14 14.115 11.11-12.033Zm290.046 192.67-15.515 5.252 10.808 10.435 4.707-15.687Zm-19.558-15.207-15.688 4.707 10.436 10.807 5.252-15.514ZM-41.9 410.11l-15.843 4.157 10.053 11.163 5.79-15.32Zm-19.573-15.18-15.98 3.6 9.658 11.509 6.322-15.11Zm-19.58-15.18-16.096 3.041 9.25 11.838 6.846-14.879Zm-19.59-15.162-16.191 2.477 8.83 12.153 7.361-14.63Zm-19.598-15.153-16.269 1.91 8.403 12.454 7.866-14.364Zm-19.607-15.144-16.326 1.342 7.962 12.74 8.364-14.082Zm-19.617-15.134-16.362.772 7.513 13.009 8.85-13.781Zm-19.626-15.126-16.38.2 7.054 13.263 9.326-13.463Zm-19.636-15.117-16.377-.373 6.588 13.502 9.79-13.13Zm-19.646-15.11-16.354-.943 6.113 13.722 10.241-12.779Zm-19.652-15.057-16.311-1.514 5.63 13.928 10.681-12.414Zm-19.657-15.158-16.249-2.082 5.14 14.116 11.11-12.034Zm-19.66-15.109-16.167-2.647 4.644 14.286 11.523-11.639Zm290.15 192.511-15.688 4.707 10.436 10.807 5.252-15.514ZM-6.76 405.8l-15.844 4.156 10.054 11.164 5.79-15.32Zm-19.575-15.17-15.98 3.6 9.659 11.508 6.32-15.108Zm-19.583-15.165-16.095 3.04 9.25 11.838 6.845-14.878ZM-65.505 360.3l-16.192 2.477 8.831 12.153 7.36-14.63Zm-19.599-15.148-16.269 1.91 8.403 12.454 7.866-14.364Zm-19.608-15.139-16.325 1.342 7.963 12.74 8.362-14.082Zm-19.616-15.13-16.362.773 7.513 13.009 8.849-13.781Zm-19.626-15.12-16.38.2 7.054 13.263 9.326-13.463Zm-19.636-15.113-16.377-.372 6.587 13.501 9.79-13.129Zm-19.646-15.105-16.354-.943 6.112 13.723 10.242-12.78Zm-19.651-15.102-16.312-1.513 5.63 13.927 10.682-12.414Zm-19.656-15.053-16.25-2.082 5.14 14.116 11.11-12.034Zm-19.66-15.154-16.167-2.647 4.644 14.286 11.522-11.639Zm-19.67-15.105-16.065-3.21 4.143 14.439 11.922-11.23ZM28.382 401.495l-15.844 4.156 10.054 11.164 5.79-15.32ZM8.808 386.32l-15.98 3.6 9.658 11.509 6.322-15.109Zm-19.585-15.156-16.095 3.041 9.25 11.838 6.845-14.879Zm-19.59-15.15-16.193 2.478 8.832 12.153 7.36-14.63Zm-19.599-15.15-16.268 1.91 8.402 12.454 7.866-14.364Zm-19.608-15.134-16.325 1.342 7.962 12.74 8.363-14.082Zm-19.616-15.124-16.363.772 7.513 13.009 8.85-13.781Zm-19.627-15.116-16.38.2 7.055 13.263 9.325-13.463Zm-19.783-15.12-16.377-.373 6.588 13.501 9.79-13.129Zm-19.497-15.088-16.355-.944 6.113 13.723 10.242-12.78Zm-19.652-15.097-16.312-1.514 5.63 13.928 10.682-12.414Zm-19.656-15.098-16.249-2.082 5.14 14.115 11.11-12.033Zm-19.66-15.05-16.166-2.647 4.644 14.286 11.523-11.639Zm-19.664-15.15-16.065-3.21 4.144 14.438 11.921-11.229Zm-19.673-15.103-15.943-3.77 3.637 14.575 12.306-10.805Zm290.35 192.23-15.98 3.601 9.659 11.508 6.32-15.108Zm-19.583-15.16-16.096 3.041 9.25 11.838 6.846-14.878Zm-19.593-15.14-16.192 2.477 8.832 12.153 7.36-14.63Zm-19.6-15.135-16.269 1.91 8.402 12.454 7.867-14.364Zm-19.607-15.136-16.326 1.342 7.963 12.738 8.363-14.08Zm-19.617-15.12-16.363.772 7.514 13.009 8.849-13.78Zm-19.627-15.111-16.38.2 7.055 13.263 9.325-13.463Zm-19.635-15.103-16.378-.372 6.588 13.501 9.79-13.129Zm-19.793-15.108-16.355-.943 6.113 13.723 10.242-12.78Zm-19.504-15.08-16.313-1.513 5.63 13.927 10.683-12.413Zm-19.656-15.093-16.249-2.081 5.14 14.115 11.11-12.034Zm-19.659-15.094-16.167-2.648 4.645 14.287 11.522-11.639Zm-19.663-15.047-16.065-3.21 4.143 14.44 11.922-11.23Zm-19.669-15.147-15.943-3.769 3.637 14.575 12.306-10.806Zm-19.677-15.101-15.802-4.323 3.126 14.693 12.676-10.37Zm290.44 192.11-16.095 3.04 9.25 11.839 6.846-14.879Zm-19.591-15.145-16.192 2.477 8.831 12.153 7.36-14.63Zm-19.602-15.126L4.043 334.19l8.402 12.454 7.867-14.365ZM.702 317.156l-16.325 1.342 7.962 12.74 8.363-14.082Zm-19.616-15.12-16.362.771 7.513 13.009 8.849-13.78Zm-19.627-15.107-16.38.2 7.055 13.263 9.325-13.463Zm-19.636-15.098-16.377-.372 6.587 13.501 9.79-13.129Zm-19.645-15.09-16.355-.943 6.113 13.722 10.242-12.78Zm-19.799-15.1-16.312-1.514 5.63 13.927 10.682-12.413Zm-19.508-15.076-16.249-2.082 5.14 14.116 11.11-12.034Zm-19.659-15.09-16.167-2.647 4.645 14.286 11.522-11.638Zm-19.663-15.091-16.065-3.21 4.143 14.44 11.922-11.23Zm-19.668-15.044-15.943-3.768 3.637 14.574 12.306-10.806Zm-19.672-15.145-15.802-4.323 3.126 14.693 12.676-10.37Zm-19.682-15.1-15.642-4.87 2.612 14.792 13.03-9.921ZM75.054 343.1l-16.192 2.477 8.832 12.153 7.36-14.63Zm-19.6-15.13-16.27 1.91 8.403 12.454 7.866-14.365Zm-19.612-15.112L19.516 314.2l7.962 12.74 8.364-14.082ZM16.223 297.75l-16.362.771 7.513 13.009 8.85-13.78ZM-3.403 282.64l-16.38.2 7.055 13.263 9.325-13.463Zm-19.636-15.093-16.377-.372 6.587 13.501 9.79-13.129Zm-19.645-15.085-16.355-.943 6.113 13.722 10.242-12.779Zm-19.652-15.082-16.312-1.514 5.63 13.928 10.682-12.414Zm-19.802-15.097-16.25-2.082 5.14 14.116 11.11-12.034Zm-19.512-15.072-16.167-2.647 4.645 14.286 11.522-11.639Zm-19.663-15.086-16.065-3.21 4.143 14.44 11.922-11.23Zm-19.667-15.09-15.943-3.768 3.637 14.575 12.306-10.806Zm-19.672-15.04-15.802-4.323 3.127 14.692 12.675-10.37Zm-19.676-15.145-15.642-4.87 2.611 14.792 13.03-9.922Zm-19.685-15.098-15.463-5.414 2.093 14.874 13.37-9.46Zm290.606 191.91-16.269 1.91 8.403 12.455 7.866-14.365Zm-19.61-15.116-16.325 1.341 7.963 12.74 8.363-14.081Zm-19.62-15.098-16.362.772 7.513 13.01 8.85-13.782Zm-19.629-15.093-16.38.2 7.055 13.264 9.325-13.464ZM12.1 263.26l-16.377-.372L2.31 276.39l9.79-13.129Zm-19.646-15.08-16.354-.943 6.112 13.723 10.242-12.78Zm-19.651-15.078-16.312-1.513 5.63 13.927 10.682-12.414Zm-19.655-15.078-16.25-2.082 5.14 14.115 11.11-12.033Zm-19.807-15.093-16.166-2.647 4.645 14.286 11.521-11.639Zm-19.515-15.068-16.065-3.21 4.143 14.439 11.922-11.23Zm-19.667-15.084-15.943-3.769 3.637 14.575 12.306-10.806Zm-19.671-15.087-15.802-4.322 3.126 14.693 12.676-10.37Zm-19.676-15.04-15.642-4.87 2.611 14.792 13.031-9.922Zm-19.68-15.142-15.463-5.414 2.093 14.874 13.37-9.46Zm-19.69-15.097-15.265-5.95 1.573 14.938 13.691-8.988Zm290.683 191.829L89.8 305.584l7.962 12.739 8.363-14.081Zm-19.62-15.102-16.361.771 7.513 13.01 8.849-13.781Zm-19.63-15.084-16.38.2 7.055 13.263 9.326-13.463Zm-19.637-15.081-16.378-.372 6.588 13.5 9.79-13.128Zm-19.645-15.082-16.354-.943 6.112 13.722 10.242-12.78ZM7.94 228.82l-16.312-1.514 5.63 13.927L7.94 228.82Zm-19.656-15.074-16.249-2.082 5.14 14.115 11.11-12.033Zm-19.659-15.075-16.167-2.647 4.646 14.285 11.521-11.638Zm-19.81-15.09-16.065-3.21 4.144 14.44 11.921-11.23Zm-19.52-15.066-15.943-3.768 3.637 14.574 12.307-10.806Zm-19.67-15.081-15.802-4.323 3.126 14.693 12.676-10.37Zm-19.675-15.085-15.642-4.871 2.61 14.792 13.032-9.92Zm-19.68-15.038-15.463-5.414 2.093 14.874 13.37-9.46Zm-19.685-15.142-15.265-5.95 1.574 14.938 13.69-8.988Zm-19.694-15.097-15.048-6.48 1.05 14.984 13.998-8.504Zm290.755 191.762-16.363.772 7.513 13.009 8.85-13.78Zm-19.63-15.088-16.38.2 7.055 13.262 9.326-13.462Zm-19.64-15.071L66 254.303l6.587 13.5 9.79-13.128ZM62.73 239.607l-16.355-.944 6.113 13.723 10.242-12.78Zm-19.65-15.075-16.313-1.514 5.63 13.928 10.682-12.414Zm-19.657-15.069-16.249-2.082 5.14 14.115 11.11-12.033Zm-19.659-15.07-16.167-2.647 4.645 14.286 11.522-11.639ZM-15.9 179.321l-16.065-3.21 4.144 14.44 11.921-11.23Zm-19.814-15.087-15.943-3.768 3.637 14.574 12.306-10.806Zm-19.523-15.063-15.802-4.323 3.126 14.693 12.676-10.37Zm-19.676-15.08-15.642-4.871 2.612 14.792 13.03-9.92Zm-19.679-15.083-15.463-5.415 2.094 14.875 13.37-9.46Zm-19.684-15.038-15.264-5.95 1.572 14.938 13.692-8.988Zm-19.69-15.142-15.047-6.48 1.05 14.984 13.998-8.504Zm-19.698-15.097-14.812-7 .527 15.01 14.285-8.01Zm290.821 191.71-16.38.2 7.055 13.262 9.325-13.463Zm-19.639-15.076-16.377-.372 6.588 13.5 9.79-13.128ZM97.87 235.307l-16.354-.943 6.112 13.722 10.242-12.78Zm-19.654-15.06-16.311-1.514 5.63 13.927 10.681-12.414ZM58.56 205.175l-16.249-2.082 5.14 14.115 11.11-12.033ZM38.901 190.11l-16.167-2.647 4.644 14.286 11.523-11.639Zm-19.663-15.067-16.065-3.21 4.144 14.44 11.921-11.23ZM-.43 159.973l-15.942-3.767 3.636 14.574L-.43 159.974Zm-19.817-15.083-15.802-4.323 3.126 14.693 12.676-10.37Zm-19.528-15.063-15.642-4.871 2.611 14.792 13.031-9.92Zm-19.679-15.078-15.463-5.414 2.094 14.874 13.37-9.46Zm-19.683-15.083-15.265-5.95 1.573 14.938 13.692-8.988ZM-98.826 84.63l-15.047-6.48 1.05 14.984 13.997-8.504Zm-19.693-15.142-14.813-7 .527 15.01 14.286-8.01Zm-19.703-15.097-14.56-7.513.003 15.02 14.557-7.507Zm290.881 191.67-16.377-.373 6.587 13.502 9.79-13.13Zm-19.648-15.063-16.355-.943 6.113 13.722 10.242-12.78Zm-19.655-15.05-16.312-1.514 5.63 13.927 10.682-12.414ZM93.698 200.89l-16.25-2.082 5.141 14.115 11.109-12.033Zm-19.659-15.068-16.167-2.647 4.645 14.286 11.522-11.639ZM54.375 170.76l-16.065-3.21 4.144 14.44 11.921-11.23ZM34.71 155.696l-15.943-3.769 3.637 14.575 12.306-10.806ZM15.04 140.63l-15.803-4.323L2.362 151l12.676-10.37Zm-19.823-15.084-15.642-4.87 2.611 14.792 13.03-9.922Zm-19.532-15.06-15.463-5.414 2.094 14.874 13.37-9.46Zm-19.683-15.078-15.265-5.95 1.573 14.938L-44 95.408Zm-19.688-15.082-15.048-6.48 1.05 14.984 13.998-8.504ZM-83.38 65.288l-14.812-7 .527 15.01 14.285-8.01Zm-19.698-15.142-14.56-7.512.004 15.02 14.556-7.508Zm-19.707-15.098-14.289-8.016-.521 15.01 14.81-6.994Zm290.937 191.643-16.355-.943 6.112 13.723 10.243-12.78Zm-19.655-15.055-16.312-1.513 5.63 13.926 10.682-12.413Zm-19.659-15.046-16.25-2.082 5.141 14.115 11.109-12.033Zm-19.661-15.053L93.01 178.89l4.644 14.285 11.523-11.638Zm-19.663-15.064-16.065-3.21 4.144 14.439 11.921-11.23Zm-19.667-15.06-15.943-3.768 3.636 14.574 12.307-10.806Zm-19.671-15.062-15.802-4.322 3.126 14.692 12.676-10.37ZM30.5 121.286l-15.642-4.87 2.611 14.791 13.03-9.92Zm-19.826-15.081L-4.79 100.79l2.094 14.874 13.37-9.46Zm-19.537-15.06-15.264-5.95 1.573 14.938 13.691-8.988ZM-28.55 76.067l-15.048-6.48 1.05 14.984 13.998-8.504Zm-19.692-15.082-14.812-7 .527 15.01 14.285-8.01Zm-19.697-15.038-14.559-7.513.003 15.02 14.556-7.507ZM-87.64 30.804l-14.288-8.016-.522 15.01 14.81-6.994Zm-19.712-15.1-14-8.51-1.045 14.983 15.045-6.473Zm290.99 191.627-16.311-1.513 5.63 13.927 10.681-12.414ZM163.98 192.28l-16.25-2.082 5.14 14.115 11.11-12.033Zm-19.663-15.043-16.167-2.648 4.644 14.286 11.523-11.638Zm-19.665-15.05-16.065-3.21 4.143 14.44 11.922-11.23Zm-19.667-15.061-15.943-3.769 3.637 14.575 12.306-10.806Zm-19.671-15.058-15.802-4.322 3.126 14.692 12.676-10.37Zm-19.675-15.06-15.642-4.87 2.611 14.791 13.03-9.92Zm-19.68-15.063L30.496 96.53l2.094 14.874 13.37-9.46ZM26.13 86.864l-15.265-5.95 1.573 14.938 13.692-8.988Zm-19.54-15.06L-8.46 65.325l1.05 14.984L6.59 71.804Zm-19.693-15.078-14.812-7 .527 15.01 14.285-8.01ZM-32.8 41.644l-14.56-7.513.003 15.02 14.557-7.507Zm-19.701-15.04L-66.79 18.59l-.521 15.01 14.81-6.994ZM-72.208 11.46l-14-8.51-1.046 14.983 15.046-6.473ZM-91.925-3.64l-13.695-8.994-1.567 14.938 15.262-5.944ZM199.12 187.974l-16.25-2.081 5.142 14.115 11.108-12.034Zm-19.662-15.047-16.167-2.648 4.645 14.286 11.522-11.638Zm-19.669-15.04-16.065-3.21 4.144 14.44 11.921-11.23Zm-19.667-15.047-15.943-3.768 3.637 14.574 12.306-10.806Zm-19.67-15.06-15.802-4.322 3.126 14.692 12.676-10.37Zm-19.675-15.054-15.642-4.872 2.61 14.793 13.032-9.921Zm-19.68-15.06-15.463-5.413 2.094 14.874 13.369-9.46ZM61.414 82.605l-15.265-5.95 1.573 14.938 13.692-8.988Zm-19.835-15.08-15.048-6.48 1.05 14.984 13.998-8.505Zm-19.545-15.06-14.812-7 .527 15.01 14.285-8.01ZM2.338 37.385l-14.56-7.513.003 15.02 14.557-7.507Zm-19.701-15.084-14.289-8.017-.521 15.011 14.81-6.994ZM-37.07 7.262l-14-8.51-1.045 14.983 15.045-6.474ZM-56.78-7.886l-13.695-8.994-1.567 14.938 15.262-5.944ZM-76.501-22.99l-13.373-9.465-2.088 14.873 15.46-5.408Zm291.1 191.61-16.167-2.647 4.644 14.285 11.523-11.637Zm-19.665-15.044-16.065-3.21 4.143 14.44 11.922-11.23ZM175.26 138.54l-15.943-3.769 3.637 14.575 12.306-10.806Zm-19.67-15.045-15.803-4.322 3.126 14.692 12.676-10.37Zm-19.675-15.058-15.642-4.87 2.61 14.792 13.032-9.922Zm-19.68-15.053-15.463-5.414 2.094 14.874 13.37-9.46ZM96.552 78.326l-15.265-5.95 1.573 14.937 13.692-8.987ZM76.864 63.263l-15.048-6.48 1.05 14.984 13.998-8.504Zm-19.84-15.08-14.812-7.001.527 15.011 14.286-8.01Zm-19.548-15.06-14.56-7.513.004 15.02 14.556-7.508Zm-19.701-15.08L3.486 10.027l-.521 15.011 14.81-6.995ZM-1.93 2.958l-14-8.51-1.046 14.984L-1.93 2.958Zm-19.71-15.043-13.696-8.993-1.567 14.938 15.262-5.945Zm-19.716-15.148L-54.729-36.7l-2.087 14.874 15.46-5.408Zm-19.726-15.108-13.034-9.926-2.606 14.791 15.64-4.865Zm291.156 191.613-16.065-3.21 4.143 14.44 11.922-11.23Zm-19.67-15.042-15.943-3.769 3.637 14.575 12.306-10.806Zm-19.677-15.035-15.802-4.322 3.126 14.692 12.676-10.37Zm-19.675-15.043-15.642-4.871 2.611 14.792 13.031-9.92Zm-19.679-15.056-15.462-5.414 2.093 14.875 13.37-9.461ZM131.69 74.043l-15.264-5.95 1.573 14.938 13.691-8.988Zm-19.687-15.058-15.048-6.48 1.05 14.984 13.998-8.504ZM92.31 43.922l-14.813-7 .527 15.01 14.286-8.01Zm-19.844-15.08-14.56-7.514.004 15.02 14.556-7.507ZM52.913 13.78 38.624 5.764l-.521 15.01 14.81-6.994ZM33.208-1.3l-14-8.51-1.046 14.983L33.208-1.3Zm-19.71-15.088L-.197-25.38l-1.568 14.938 15.263-5.945ZM-6.217-31.433l-13.373-9.465-2.088 14.873 15.46-5.408Zm-19.72-15.152-13.035-9.926-2.606 14.792 15.64-4.866Zm-19.73-15.11L-58.349-72.07l-3.12 14.69 15.8-4.316Zm291.212 191.62-15.944-3.769 3.637 14.575 12.307-10.806Zm-19.674-15.04-15.802-4.322 3.126 14.692 12.676-10.37ZM206.19 99.852l-15.642-4.871 2.611 14.792 13.03-9.92ZM186.51 84.81l-15.462-5.414 2.094 14.874 13.369-9.46Zm-19.682-15.055-15.265-5.95 1.572 14.937 13.693-8.987ZM147.14 54.702l-15.048-6.48 1.05 14.984 13.998-8.504Zm-19.693-15.057-14.812-7 .527 15.01 14.285-8.01ZM107.751 24.58l-14.56-7.513.004 15.02 14.556-7.507ZM87.903 9.5 73.615 1.483l-.522 15.01L87.903 9.5ZM68.345-5.564l-14-8.51L53.299.91l15.046-6.474Zm-19.71-15.082L34.942-29.64l-1.567 14.937 15.262-5.943Zm-19.714-15.09L15.548-45.2 13.46-30.328l15.461-5.408ZM9.201-50.784-3.832-60.71-6.438-45.92l15.64-4.865ZM-10.523-65.94l-12.68-10.375-3.12 14.691 15.8-4.316Zm-19.74-15.12-12.312-10.81-3.631 14.572 15.942-3.761ZM260.96 110.646l-15.802-4.322 3.126 14.69 12.676-10.368Zm-19.677-15.038-15.642-4.871 2.611 14.792 13.03-9.92Zm-19.685-15.032-15.463-5.414 2.094 14.874 13.369-9.46Zm-19.683-15.041-15.265-5.95 1.573 14.938 13.692-8.988Zm-19.687-15.055-15.048-6.48 1.05 14.984 13.998-8.504Zm-19.693-15.053-14.813-7 .527 15.01 14.286-8.01Zm-19.697-15.058-14.56-7.513.004 15.02 14.556-7.507Zm-19.7-15.064-14.289-8.017-.521 15.011 14.81-6.994ZM103.285-9.78l-14-8.51-1.046 14.984 15.046-6.474ZM83.723-24.845l-13.695-8.993L68.46-18.9l15.262-5.944ZM64.009-39.93l-13.373-9.465-2.088 14.873 15.46-5.408Zm-19.72-15.092-13.034-9.926-2.605 14.791 15.64-4.865ZM24.565-70.074l-12.68-10.375-3.12 14.691 15.8-4.316ZM4.83-85.238-7.481-96.05l-3.632 14.574L4.83-85.238Zm-19.754-15.13-11.926-11.234-4.137 14.437 16.063-3.204Z" fill="#E5E7EB" fill-rule="nonzero"/></svg>
